#!OML:ASF F:\VICON\USERDATA\INSTALL\rory3\rory3.ASF
:FULLY-SPECIFIED
:DEGREES
171
root 0.473351 22.0897 -3.42492 0.048976 1.92445 -0.157381
lowerback 8.40903 0.00815861 -1.47375
upperback 1.65806 -0.0265611 2.69974
thorax -2.9946 0.00808189 3.63364
lowerneck -11.6004 -3.62794 -8.94908
upperneck 30.1336 -4.60649 5.06284
head 12.1688 -2.44588 2.82549
rclavicle 1.16289e-014 -3.18055e-015
rhumerus -63.0313 17.7472 -74.8818
rradius 66.5249
rwrist -4.76237
rhand -9.46023 15.7022
rfingers 7.12502
rthumb 16.5034 -13.6159
lclavicle 1.16289e-014 -3.18055e-015
lhumerus -63.1614 -0.524057 64.417
lradius 62.2234
lwrist 6.54467
lhand -23.5822 22.0897
lfingers 7.12502
lthumb 2.88083 52.0499
rfemur -16.577 1.02929 22.1599
rtibia 28.1933
rfoot 19.2502 -3.38236
rtoes 7.31659
lfemur -15.5351 -1.08399 -23.5682
ltibia 29.0971
lfoot 14.6699 -2.22178
ltoes -0.222278
172
root 0.463802 21.9633 -3.26111 -0.0681444 1.7851 -0.22668
lowerback 8.62921 0.0882208 -1.45479
upperback 1.64189 0.0799157 2.65502
thorax -3.14166 0.0629732 3.56631
lowerneck -12.0706 -3.67923 -8.9702
upperneck 30.671 -4.65758 5.0853
head 12.492 -2.46736 2.83564
rclavicle -1.60022e-014 1.03368e-014
rhumerus -62.5756 17.7173 -75.0175
rradius 65.323
rwrist -4.85612
rhand -9.55386 16.0409
rfingers 7.12502
rthumb 16.4132 -13.2847
lclavicle -1.60022e-014 1.03368e-014
lhumerus -62.8593 -0.681458 64.4245
lradius 61.1142
lwrist 5.89825
lhand -23.2164 21.2245
lfingers 7.12502
lthumb 3.23408 51.1797
rfemur -17.1661 0.917507 22.1265
rtibia 27.6126
rfoot 19.1911 -3.62002
rtoes 6.51822
lfemur -15.7673 -1.41558 -23.3078
ltibia 27.91
lfoot 14.5506 -2.39442
ltoes -1.11533
173
root 0.450751 21.8294 -3.0937 -0.0879206 1.76671 0.0264221
lowerback 8.60024 0.164479 -1.75281
upperback 1.70047 0.147035 2.46534
thorax -3.0697 0.0966755 3.52917
lowerneck -11.5614 -3.82962 -9.29702
upperneck 30.3007 -4.99322 5.61005
head 12.2883 -2.59351 3.04415
rclavicle -9.93923e-016 1.98785e-014
rhumerus -62.2272 17.4387 -75.1548
rradius 64.5797
rwrist -5.01097
rhand -9.18414 15.6298
rfingers 7.12502
rthumb 16.7692 -13.666
lclavicle -9.93923e-016 1.98785e-014
lhumerus -62.3232 -0.929101 64.4264
lradius 60.0863
lwrist 5.82499
lhand -23.2882 20.7986
lfingers 7.12502
lthumb 3.1648 50.7548
rfemur -17.778 0.710758 21.7368
rtibia 27.0624
rfoot 19.119 -4.12569
rtoes 6.19414
lfemur -16.0922 -1.77494 -23.3875
ltibia 26.7292
lfoot 14.6507 -2.45893
ltoes -3.14786
174
root 0.433965 21.6813 -2.92593 -0.149678 1.68244 0.0342685
lowerback 8.68046 0.205551 -1.92179
upperback 1.65555 0.18446 2.41733
thorax -3.16395 0.118637 3.57139
lowerneck -10.9864 -3.86715 -9.64389
upperneck 29.9887 -5.12482 5.99182
head 12.0767 -2.65206 3.23196
rclavicle 4.77083e-015 1.03368e-014
rhumerus -61.7877 17.4605 -75.3154
rradius 63.5995
rwrist -5.21842
rhand -8.42178 14.8549
rfingers 7.12502
rthumb 17.503 -14.3771
lclavicle 4.77083e-015 1.03368e-014
lhumerus -62.0567 -1.00267 64.4949
lradius 59.1602
lwrist 5.66767
lhand -23.493 20.8686
lfingers 7.12502
lthumb 2.967 50.8277
rfemur -18.3717 0.590098 21.6666
rtibia 26.558
rfoot 19.3376 -4.87754
rtoes 5.9564
lfemur -16.4298 -2.13655 -23.1427
ltibia 25.5535
lfoot 14.8787 -2.16902
ltoes -4.92408
